# xmcd
#
# Track frame offsets: 
#        150
#        12979
#        26644
#        40168
#        53773
#        67934
#        80603
#        91721
#        105947
#        120102
#        130791
#        145017
#        158236
#        171781
#        184870
#        198900
#        210334
#        223188
#
# Disc length: 3137 seconds
#
# Revision: 1
# Processed by: cddbd v1.5.2PL0 Copyright (c) Steve Scherf et al.
# Submitted via: ExactAudioCopy v0.95b2
#
DISCID=e20c3f12
DTITLE=Sleepy John Estes - The Essential Sleepy John Estes Disc 1
DYEAR=2001
DGENRE=General Blues
TTITLE0=Special Agent
TTITLE1=Milk Cow Blues
TTITLE2=Someday Baby Blues
TTITLE3=Watcha Doin'?
TTITLE4=Down South Blues
TTITLE5=Everybody Oughta Make A Change
TTITLE6=Liquor Store
TTITLE7=Drop Down Mama
TTITLE8=Vernila Blues
TTITLE9=Mary Come On Home
TTITLE10=Floating Bridge
TTITLE11=Black Gal Swing With The Delta Boys
TTITLE12=Working Man Blues
TTITLE13=Mailman Blues
TTITLE14=Lawyer Clark Blues
TTITLE15=You Shouldn't Do That With The Delta Boys
TTITLE16=Airplane Blues
TTITLE17=Stop That Thing
EXTD=william hale
EXTT0=
EXTT1=
EXTT2=
EXTT3=
EXTT4=
EXTT5=
EXTT6=
EXTT7=
EXTT8=
EXTT9=
EXTT10=
EXTT11=
EXTT12=
EXTT13=
EXTT14=
EXTT15=
EXTT16=
EXTT17=
PLAYORDER=
